<svg width="100" height="100" viewBox="0 0 100 100" fill="none" xmlns="http://www.w3.org/2000/svg">
<rect width="100" height="100" rx="20" fill="url(#paint0_linear_2_150)"/>
<path d="M27.97 80C27.3467 80 26.8083 79.7733 26.355 79.32C25.9017 78.8667 25.675 78.3283 25.675 77.705V22.795C25.675 22.1717 25.9017 21.6333 26.355 21.18C26.8083 20.7267 27.3467 20.5 27.97 20.5H71.575C72.1983 20.5 72.7367 20.7267 73.19 21.18C73.6433 21.6333 73.87 22.1717 73.87 22.795V34.78C73.87 35.4033 73.6433 35.9417 73.19 36.395C72.7367 36.8483 72.1983 37.075 71.575 37.075H46.075V42.43H69.705C70.3283 42.43 70.8667 42.6567 71.32 43.11C71.7733 43.5633 72 44.1017 72 44.725V55.775C72 56.3983 71.7733 56.9367 71.32 57.39C70.8667 57.8433 70.3283 58.07 69.705 58.07H46.075V63.425H72.255C72.8783 63.425 73.4167 63.6517 73.87 64.105C74.3233 64.5583 74.55 65.0967 74.55 65.72V77.705C74.55 78.3283 74.3233 78.8667 73.87 79.32C73.4167 79.7733 72.8783 80 72.255 80H27.97ZM56.53 24.155C56.3033 23.7017 56.02 23.5317 55.68 23.645C55.3967 23.7583 55.0283 23.8433 54.575 23.9C54.065 23.9567 53.64 23.9567 53.3 23.9C52.96 23.8433 52.7617 24.07 52.705 24.58C52.5917 25.09 52.6483 25.43 52.875 25.6C53.1017 25.77 53.47 25.9967 53.98 26.28C54.4333 26.5067 54.7733 26.705 55 26.875C55.2833 26.9883 55.6233 26.875 56.02 26.535C56.4733 26.1383 56.7283 25.7983 56.785 25.515C56.8417 25.175 56.7567 24.7217 56.53 24.155ZM32.475 24.665C32.0783 24.2683 31.71 24.0417 31.37 23.985C31.0867 23.8717 30.69 23.9283 30.18 24.155C29.5 24.495 28.9617 24.7783 28.565 25.005C28.1683 25.175 27.9983 25.6283 28.055 26.365C28.1683 27.1017 28.4517 27.4983 28.905 27.555C29.3583 27.6117 29.9533 27.725 30.69 27.895C31.3133 28.0083 31.795 28.065 32.135 28.065C32.5317 28.065 32.8717 27.7817 33.155 27.215C33.495 26.6483 33.58 26.2233 33.41 25.94C33.24 25.6 32.9283 25.175 32.475 24.665ZM66.135 25.005C65.7383 24.6083 65.37 24.4667 65.03 24.58C64.7467 24.6367 64.35 24.8067 63.84 25.09C63.2733 25.3733 62.82 25.6 62.48 25.77C62.1967 25.8833 62.0833 26.2517 62.14 26.875C62.2533 27.4983 62.48 27.8383 62.82 27.895C63.16 27.9517 63.6417 28.0367 64.265 28.15C64.8317 28.2633 65.285 28.3483 65.625 28.405C66.0217 28.4617 66.3617 28.2067 66.645 27.64C66.9283 27.0733 67.0133 26.62 66.9 26.28C66.8433 25.94 66.5883 25.515 66.135 25.005ZM51.09 25.94C51.09 25.5433 51.0333 25.26 50.92 25.09C50.8633 24.92 50.665 24.8067 50.325 24.75C49.9283 24.6367 49.6167 24.6083 49.39 24.665C49.22 24.665 49.0217 24.8067 48.795 25.09C48.455 25.6567 48.4833 26.2233 48.88 26.79C49.1067 27.0733 49.305 27.215 49.475 27.215C49.7017 27.1583 49.985 27.0733 50.325 26.96C50.835 26.79 51.09 26.45 51.09 25.94ZM45.99 25.855L45.48 25.43L45.055 25.855V26.535L45.82 26.62L45.99 25.855ZM69.79 26.705L69.025 26.365L68.345 26.62L68.515 27.47H69.365L69.79 26.705ZM42.165 27.555C41.485 27.3283 41.0033 27.3567 40.72 27.64C40.4933 27.9233 40.1817 28.3483 39.785 28.915C39.3883 29.4817 39.105 29.935 38.935 30.275C38.765 30.5583 38.8783 30.9833 39.275 31.55C39.7283 32.1167 40.125 32.485 40.465 32.655C40.8617 32.7683 41.4 32.7117 42.08 32.485C42.76 32.2583 43.1283 31.975 43.185 31.635C43.2417 31.2383 43.27 30.7 43.27 30.02C43.27 29.34 43.2417 28.8017 43.185 28.405C43.1283 28.0083 42.7883 27.725 42.165 27.555ZM35.365 28.66L34.855 29.085L35.025 29.68L35.79 29.935L35.96 29.085L35.365 28.66ZM54.405 30.36C54.1783 30.19 53.98 30.1617 53.81 30.275C53.64 30.3883 53.4417 30.5583 53.215 30.785C52.9883 30.955 52.79 31.0967 52.62 31.21C52.45 31.2667 52.4217 31.4367 52.535 31.72C52.6483 32.06 52.7617 32.315 52.875 32.485C52.9883 32.655 53.2433 32.74 53.64 32.74C54.2067 32.74 54.6033 32.4283 54.83 31.805C55.0567 31.2383 54.915 30.7567 54.405 30.36ZM64.605 32.315C64.3217 32.2017 64.1233 32.23 64.01 32.4C63.9533 32.57 63.8117 32.7683 63.585 32.995C63.415 33.2217 63.2733 33.42 63.16 33.59C63.1033 33.7033 63.16 33.8733 63.33 34.1C63.5567 34.3833 63.925 34.4683 64.435 34.355C64.7183 34.2417 64.945 34.1567 65.115 34.1C65.3417 34.0433 65.455 33.8733 65.455 33.59C65.5117 32.9667 65.2283 32.5417 64.605 32.315ZM33.495 35.375C33.0983 35.0917 32.7867 34.865 32.56 34.695C32.39 34.4683 32.1067 34.4967 31.71 34.78C31.2567 35.0633 30.9733 35.3467 30.86 35.63C30.7467 35.9133 30.775 36.31 30.945 36.82C31.0583 37.33 31.2283 37.6417 31.455 37.755C31.7383 37.8117 32.135 37.84 32.645 37.84C33.2117 37.84 33.6367 37.84 33.92 37.84C34.2033 37.7833 34.4583 37.5 34.685 36.99C34.855 36.5367 34.7983 36.225 34.515 36.055C34.2317 35.885 33.8917 35.6583 33.495 35.375ZM38.68 36.055L37.915 36.48L37.83 36.99L38.34 37.585L38.765 36.905L38.68 36.055ZM32.56 41.495C31.9367 41.325 31.4833 41.3533 31.2 41.58C30.9167 41.75 30.5767 42.09 30.18 42.6C29.84 43.11 29.6417 43.535 29.585 43.875C29.585 44.1583 29.7833 44.5267 30.18 44.98C30.52 45.49 30.8317 45.8583 31.115 46.085C31.455 46.255 31.9367 46.255 32.56 46.085C33.1267 45.8583 33.41 45.575 33.41 45.235C33.4667 44.895 33.495 44.4133 33.495 43.79C33.495 43.1667 33.4667 42.685 33.41 42.345C33.41 42.005 33.1267 41.7217 32.56 41.495ZM46.075 47.19C45.3383 46.7933 44.7433 46.6233 44.29 46.68C43.8933 46.7367 43.3833 47.02 42.76 47.53C42.1367 48.1533 41.74 48.6917 41.57 49.145C41.4 49.5417 41.485 50.1367 41.825 50.93C42.2217 51.8367 42.59 52.5167 42.93 52.97C43.3267 53.4233 44.035 53.5933 45.055 53.48C46.075 53.3667 46.6983 53.0833 46.925 52.63C47.2083 52.12 47.4633 51.355 47.69 50.335C47.86 49.485 47.8033 48.8617 47.52 48.465C47.2933 48.0683 46.8117 47.6433 46.075 47.19ZM53.81 47.445C53.47 47.0483 53.0167 46.9633 52.45 47.19C52.11 47.3033 51.8833 47.445 51.77 47.615C51.6567 47.7283 51.6 47.955 51.6 48.295C51.6567 48.9183 51.9967 49.315 52.62 49.485C52.9033 49.5417 53.1017 49.5133 53.215 49.4C53.3283 49.23 53.47 49.0033 53.64 48.72C53.81 48.4367 53.9233 48.21 53.98 48.04C54.0367 47.87 53.98 47.6717 53.81 47.445ZM35.195 49.91C34.9117 49.6833 34.6567 49.5417 34.43 49.485C34.26 49.4283 34.0333 49.5133 33.75 49.74C33.3533 49.9667 33.0983 50.1933 32.985 50.42C32.8717 50.59 32.8717 50.9017 32.985 51.355C33.0983 51.7517 33.2683 52.035 33.495 52.205C33.7217 52.3183 34.0617 52.375 34.515 52.375C34.9117 52.375 35.195 52.29 35.365 52.12C35.535 51.95 35.6767 51.6667 35.79 51.27C35.9033 50.93 35.9033 50.675 35.79 50.505C35.7333 50.335 35.535 50.1367 35.195 49.91ZM56.7 50.25L55.935 49.74L55.17 50.08L55.425 51.015H56.275L56.7 50.25ZM29.585 50.25L28.48 50.42L28.65 51.61L29.67 51.78L30.435 51.015L29.585 50.25ZM53.045 52.715C52.705 52.4883 52.45 52.29 52.28 52.12C52.1667 51.8933 51.94 51.8933 51.6 52.12C50.92 52.5733 50.6933 53.1683 50.92 53.905C50.9767 54.3017 51.1183 54.5 51.345 54.5C51.6283 54.5 51.9683 54.5 52.365 54.5C52.7617 54.5 53.045 54.5 53.215 54.5C53.4417 54.5 53.6117 54.33 53.725 53.99C53.8383 53.65 53.81 53.4233 53.64 53.31C53.5267 53.14 53.3283 52.9417 53.045 52.715ZM35.535 54.16L35.11 54.415L34.94 55.095L35.705 55.265L36.045 54.67L35.535 54.16ZM38.255 57.39C37.8583 57.05 37.5467 56.7383 37.32 56.455C37.15 56.1717 36.8383 56.1717 36.385 56.455C35.9317 56.6817 35.7617 56.965 35.875 57.305C36.045 57.5883 36.1867 57.985 36.3 58.495C36.4133 58.8917 36.4983 59.2033 36.555 59.43C36.6683 59.6567 36.9233 59.7983 37.32 59.855C37.83 59.9117 38.1983 59.8833 38.425 59.77C38.6517 59.6567 38.85 59.3733 39.02 58.92C39.19 58.5233 39.1617 58.24 38.935 58.07C38.765 57.9 38.5383 57.6733 38.255 57.39ZM31.795 57.39C31.3417 57.3333 30.9733 57.305 30.69 57.305C30.4633 57.305 30.265 57.5317 30.095 57.985C29.755 58.7217 29.8683 59.3733 30.435 59.94C30.8317 60.28 31.1717 60.5067 31.455 60.62C31.7383 60.6767 32.1067 60.5633 32.56 60.28C32.9567 60.0533 33.0983 59.7983 32.985 59.515C32.9283 59.2317 32.8717 58.8633 32.815 58.41C32.7017 57.7867 32.3617 57.4467 31.795 57.39ZM31.88 63.765C31.88 63.425 31.88 63.1417 31.88 62.915C31.88 62.6317 31.6817 62.4617 31.285 62.405C30.945 62.2917 30.7183 62.3483 30.605 62.575C30.5483 62.8017 30.435 63.085 30.265 63.425C30.0383 63.765 30.0383 64.0767 30.265 64.36C30.4917 64.5867 30.6617 64.7567 30.775 64.87C30.8883 64.9833 31.0867 64.9833 31.37 64.87C31.7667 64.7 31.9367 64.3317 31.88 63.765ZM37.32 67.42C37.32 66.8533 37.235 66.4567 37.065 66.23C36.9517 65.9467 36.64 65.72 36.13 65.55C35.3933 65.3233 34.8267 65.1817 34.43 65.125C34.0333 65.0683 33.6367 65.3517 33.24 65.975C32.8433 66.5417 32.7867 66.995 33.07 67.335C33.41 67.6183 33.7783 68.015 34.175 68.525C34.5717 68.9783 34.8833 69.3183 35.11 69.545C35.3367 69.7717 35.7333 69.7717 36.3 69.545C36.8667 69.375 37.1783 69.1483 37.235 68.865C37.2917 68.525 37.32 68.0433 37.32 67.42ZM59.76 66.315C58.9667 66.0317 58.4 66.06 58.06 66.4C57.72 66.74 57.3233 67.25 56.87 67.93C56.4167 68.61 56.0767 69.1767 55.85 69.63C55.68 70.0267 55.8217 70.5367 56.275 71.16C56.785 71.84 57.2667 72.1233 57.72 72.01C58.1733 71.84 58.7683 71.6417 59.505 71.415C60.1283 71.1883 60.525 70.9333 60.695 70.65C60.865 70.3667 60.95 69.9133 60.95 69.29C60.95 68.44 60.9217 67.7883 60.865 67.335C60.865 66.8817 60.4967 66.5417 59.76 66.315ZM42.42 69.12L41.23 68.78L41.06 69.97L41.74 70.48L42.335 70.055L42.42 69.12ZM70.64 71.245C70.5267 70.8483 70.4133 70.5367 70.3 70.31C70.1867 70.0833 69.9317 69.97 69.535 69.97C69.025 69.97 68.6283 70.0267 68.345 70.14C68.1183 70.2533 67.92 70.5367 67.75 70.99C67.58 71.3867 67.58 71.6983 67.75 71.925C67.9767 72.095 68.2883 72.3217 68.685 72.605C69.0817 72.945 69.3933 73.2567 69.62 73.54C69.9033 73.7667 70.2717 73.7383 70.725 73.455C71.1783 73.115 71.32 72.8033 71.15 72.52C70.98 72.18 70.81 71.755 70.64 71.245ZM47.095 70.82L46.245 70.735L46.16 71.585L46.84 72.01L47.265 71.415L47.095 70.82ZM50.835 76.175H50.155L50.07 76.77L50.665 77.11L51.09 76.685L50.835 76.175Z" fill="white"/>
<defs>
<linearGradient id="paint0_linear_2_150" x1="50" y1="0" x2="50" y2="100" gradientUnits="userSpaceOnUse">
<stop stop-color="#70C8CE"/>
<stop offset="1" stop-color="#D6A109"/>
</linearGradient>
</defs>
</svg>
